<?xml version="1.0" standalone="no"?>
<!DOCTYPE svg PUBLIC "-//W3C//DTD SVG 20010904//EN"
 "http://www.w3.org/TR/2001/REC-SVG-20010904/DTD/svg10.dtd">
<svg version="1.0" xmlns="http://www.w3.org/2000/svg"
 width="1450.000000pt" height="1450.000000pt" viewBox="0 0 1450.000000 1450.000000"
 preserveAspectRatio="xMidYMid meet">
<metadata>
Created by potrace 1.14, written by Peter Selinger 2001-2017
</metadata>
<g transform="translate(0.000000,1450.000000) scale(0.100000,-0.100000)"
fill="#000000" stroke="none">
<path d="M0 7250 l0 -7250 7250 0 7250 0 0 7250 0 7250 -7250 0 -7250 0 0
-7250z m13860 0 l0 -6620 -6610 0 -6610 0 0 6620 0 6620 6610 0 6610 0 0
-6620z"/>
<path d="M1270 7250 l0 -5980 5980 0 5980 0 0 5980 0 5980 -5980 0 -5980 0 0
-5980z m3480 4550 c354 -32 655 -153 862 -348 117 -111 193 -246 237 -424 23
-93 45 -308 33 -320 -5 -5 -105 -7 -222 -6 l-214 3 -13 78 c-70 417 -350 617
-863 617 -292 0 -482 -60 -612 -191 -159 -162 -208 -396 -120 -582 85 -180
206 -229 1050 -423 535 -122 701 -191 867 -358 159 -160 228 -348 228 -621 1
-360 -125 -625 -375 -791 -456 -303 -1229 -363 -1726 -133 -396 183 -630 540
-644 984 l-3 90 220 0 220 0 7 -80 c4 -44 19 -120 33 -169 109 -381 408 -566
914 -566 479 0 809 168 883 449 46 179 7 377 -99 491 -96 104 -296 186 -653
268 -96 23 -276 64 -400 92 -580 133 -802 256 -931 515 -109 220 -104 563 14
817 93 201 262 375 465 477 217 109 532 158 842 131z m5278 -107 c15 -43 1232
-3403 1239 -3419 4 -12 -32 -14 -252 -12 l-258 3 -181 535 c-270 795 -840
2401 -847 2387 -6 -10 -352 -964 -934 -2574 l-127 -353 -240 0 c-225 0 -240 1
-233 18 3 9 291 775 640 1702 348 927 638 1697 644 1713 l11 27 264 0 264 0
10 -27z m-4310 -6520 l-3 -1728 -1107 -3 -1108 -2 0 210 0 210 875 0 875 0 0
1520 0 1520 235 0 235 0 -2 -1727z m5412 1522 l0 -205 -580 0 -580 0 0 -1525
0 -1525 -240 0 -240 0 0 1525 0 1525 -580 0 -580 0 0 205 0 205 1400 0 1400 0
0 -205z"/>
</g>
</svg>
