<svg width="28" height="28" viewBox="0 0 28 28" fill="none" xmlns="http://www.w3.org/2000/svg">
<path d="M18.6665 4.66663H9.33317C6.75584 4.66663 4.6665 6.75596 4.6665 9.33329V18.6666C4.6665 21.244 6.75584 23.3333 9.33317 23.3333H18.6665C21.2438 23.3333 23.3332 21.244 23.3332 18.6666V9.33329C23.3332 6.75596 21.2438 4.66663 18.6665 4.66663Z" stroke="white" stroke-linecap="round" stroke-linejoin="round"/>
<path d="M14 17.5C15.933 17.5 17.5 15.933 17.5 14C17.5 12.067 15.933 10.5 14 10.5C12.067 10.5 10.5 12.067 10.5 14C10.5 15.933 12.067 17.5 14 17.5Z" stroke="white" stroke-linecap="round" stroke-linejoin="round"/>
<path d="M19.25 8.75V8.751" stroke="white" stroke-width="2" stroke-linecap="round" stroke-linejoin="round"/>
</svg>
