<svg width="177" height="17" viewBox="0 0 177 17" fill="none" xmlns="http://www.w3.org/2000/svg">
<path fill-rule="evenodd" clip-rule="evenodd" d="M133.444 0.0677616C108.559 0.260162 101.444 0.385323 87.637 0.873899C73.3286 1.38022 63.0887 1.88775 46.8414 2.89593C43.0749 3.12965 39.042 3.35145 34.314 3.58484C16.9463 4.44218 13.5667 4.67063 7.95214 5.36651C5.17031 5.71138 2.76451 5.95003 1.41614 6.01509C0.217322 6.07285 0 6.10922 0 6.25204C0 6.37826 1.91734 6.48884 2.96604 6.42306C3.34186 6.39956 4.36006 6.34196 5.22881 6.29522C6.09755 6.2484 8.00933 6.12275 9.47721 6.01598C12.9338 5.76444 14.5934 5.68513 20.534 5.48754C30.5207 5.1554 38.0648 4.83622 47.3316 4.3538C50.7467 4.17598 55.281 3.93992 57.4079 3.82917C73.5393 2.98917 93.2437 2.24014 105.284 2.00934C119.896 1.72913 165.256 1.4814 164.49 1.68587C164.186 1.76696 158.995 2.37009 155.884 2.68587C153.026 2.97597 148.25 3.39439 142.376 3.86943C139.59 4.0948 135.767 4.4067 133.879 4.56256C126.789 5.14819 124.454 5.32981 120.426 5.60922C101.869 6.89624 89.6111 8.01775 72.5497 9.98939C62.4085 11.1613 54.0964 12.5066 44.8202 14.4776C39.5463 15.5981 39.0325 15.7971 39.5516 16.5185C39.8894 16.9879 42.5504 17.0488 47.9176 16.7097C57.726 16.0902 66.9432 15.6098 75.8722 15.2525C81.4729 15.0284 82.2147 14.9908 87.9093 14.643C90.0362 14.5131 93.7128 14.3232 96.0793 14.2212L100.382 14.0356L94.6632 13.9624C85.997 13.8515 76.7006 13.8582 73.639 13.9776C63.503 14.373 57.9899 14.6772 48.9847 15.3382C46.8382 15.4958 45.0274 15.6111 44.9606 15.5946C44.3157 15.4347 58.7501 13.0185 65.6361 12.1337C81.1805 10.1362 97.188 8.64583 121.788 6.90556C124.034 6.74661 128.544 6.39892 131.81 6.13296C135.075 5.86692 140.222 5.44809 143.248 5.20206C154.893 4.25529 158.363 3.90265 169.555 2.5283C176.723 1.64804 176.761 1.6405 176.957 1.0616C177.172 0.425101 176.597 0.136299 174.952 0.0537489C173.389 -0.0247505 144.128 -0.0148693 133.444 0.0677616ZM100.846 13.9713C100.982 13.9907 101.178 13.9899 101.282 13.9697C101.386 13.9494 101.275 13.9336 101.036 13.9345C100.796 13.9353 100.711 13.952 100.846 13.9713Z" fill="#C89269"/>
</svg>
