<svg width="127" height="15" viewBox="0 0 127 15" fill="none" xmlns="http://www.w3.org/2000/svg">
<path fill-rule="evenodd" clip-rule="evenodd" d="M95.7476 0.0587265C77.8926 0.225473 72.7875 0.333945 62.8808 0.757376C52.6143 1.19618 45.267 1.63604 33.6094 2.50979C30.9069 2.71235 28.0132 2.90458 24.6208 3.10685C12.1592 3.84987 9.73429 4.04786 5.70578 4.65096C3.70977 4.94984 1.98358 5.15667 1.0161 5.21305C0.155932 5.26311 0 5.29463 0 5.41841C0 5.5278 1.37572 5.62363 2.12818 5.56662C2.39783 5.54626 3.12841 5.49635 3.75174 5.45583C4.37508 5.41525 5.74681 5.30636 6.80003 5.21382C9.28017 4.99582 10.471 4.92709 14.7334 4.75585C21.899 4.46799 27.3121 4.19137 33.9611 3.77327C36.4114 3.61916 39.6649 3.41458 41.191 3.3186C52.7655 2.59061 66.9037 1.94145 75.5429 1.74142C86.0268 1.49857 118.573 1.28387 118.024 1.46108C117.806 1.53136 114.082 2.05407 111.849 2.32774C109.798 2.57916 106.372 2.94179 102.157 3.35349C100.158 3.54882 97.4144 3.81912 96.0603 3.9542C90.9731 4.46175 89.2976 4.61915 86.4073 4.8613C73.0924 5.97671 64.2972 6.94869 52.0554 8.65743C44.779 9.67308 38.8149 10.839 32.1592 12.5472C28.3751 13.5183 28.0064 13.6908 28.3788 14.316C28.6212 14.7228 30.5305 14.7755 34.3815 14.4817C41.4192 13.9448 48.0327 13.5284 54.4394 13.2188C58.4579 13.0246 58.9902 12.992 63.0762 12.6905C64.6023 12.578 67.2402 12.4134 68.9383 12.3249L72.0257 12.1641L67.9222 12.1007C61.7041 12.0046 55.0338 12.0104 52.837 12.1139C45.5643 12.4565 41.6086 12.7202 35.1472 13.2931C33.6071 13.4296 32.3078 13.5296 32.2598 13.5153C31.7971 13.3767 42.154 11.2826 47.0948 10.5158C58.2482 8.78465 69.7337 7.49302 87.3843 5.98479C88.9964 5.84704 92.2323 5.5457 94.5752 5.31521C96.9181 5.08464 100.611 4.72166 102.782 4.50843C111.138 3.6879 113.628 3.38228 121.658 2.19118C126.801 1.42829 126.829 1.42176 126.969 0.920051C127.123 0.368419 126.711 0.118125 125.531 0.0465822C124.409 -0.0214503 103.414 -0.0128867 95.7476 0.0587265ZM72.3588 12.1084C72.456 12.1252 72.5967 12.1246 72.6714 12.107C72.7461 12.0895 72.6666 12.0757 72.4946 12.0765C72.3227 12.0772 72.2615 12.0916 72.3588 12.1084Z" fill="#C89269"/>
</svg>
