<svg width="76" height="87" viewBox="0 0 76 87" fill="none" xmlns="http://www.w3.org/2000/svg">
<path fill-rule="evenodd" clip-rule="evenodd" d="M0 76.1053H76V0.000106812H0V76.1053ZM3.64643 72.4539V3.65158H72.3536V72.4539H3.64643Z" fill="white"/>
<path d="M17.4413 25.8254C17.5043 26.9528 17.7701 27.8683 18.2384 28.5718C19.1301 29.8887 20.7018 30.5471 22.9536 30.5471C23.9624 30.5471 24.8811 30.4028 25.7097 30.1142C27.313 29.555 28.1146 28.5538 28.1146 27.1107C28.1146 26.0284 27.7768 25.2572 27.1013 24.7972C26.4168 24.3462 25.3449 23.9539 23.8858 23.6202L21.1972 23.0113C19.4408 22.6145 18.1979 22.177 17.4683 21.699C16.2073 20.8692 15.5768 19.629 15.5768 17.9785C15.5768 16.1926 16.1938 14.727 17.4278 13.5815C18.6617 12.436 20.4091 11.8633 22.6699 11.8633C24.7505 11.8633 26.5158 12.3684 27.966 13.3786C29.4251 14.3797 30.1547 15.9852 30.1547 18.1949H27.6282C27.4931 17.1306 27.2049 16.3144 26.7635 15.7462C25.9439 14.7089 24.5523 14.1903 22.5888 14.1903C21.0036 14.1903 19.8642 14.524 19.1706 15.1915C18.4771 15.8589 18.1303 16.6346 18.1303 17.5185C18.1303 18.4926 18.5356 19.2051 19.3463 19.6561C19.8777 19.9447 21.0801 20.3055 22.9536 20.7384L25.7367 21.3743C27.0788 21.681 28.1146 22.1004 28.8442 22.6325C30.1051 23.5615 30.7356 24.9099 30.7356 26.6778C30.7356 28.8785 29.934 30.4524 28.3308 31.3994C26.7365 32.3465 24.8811 32.82 22.7644 32.82C20.2965 32.82 18.3645 32.1886 16.9684 30.9259C15.5723 29.6722 14.8878 27.972 14.9148 25.8254H17.4413Z" fill="white"/>
<path d="M56.1533 26.2854L52.2758 15.3133L48.3037 26.2854H56.1533ZM50.8707 12.3639H53.9106L61.1117 32.2383H58.1664L56.1533 26.2854H48.3037L46.1556 32.2383H43.3994L50.8707 12.3639Z" fill="white"/>
<path d="M29.1826 40.0717H26.494V57.5784H16.4422V59.9461H29.1826V40.0717Z" fill="white"/>
<path d="M60.3079 40.0717V42.4393H53.6202V59.9461H50.8911V42.4393H44.2034V40.0717H60.3079Z" fill="white"/>
<path d="M0.244385 82.018H0.840797V86.3829H0.244385V82.018Z" fill="white"/>
<path d="M3.01756 82.018H3.71485L5.91654 85.5539V82.018H6.47734V86.3829H5.81565L3.58133 82.85V86.3829H3.01756V82.018Z" fill="white"/>
<path d="M11.7964 82.018V82.538H10.3276V86.3829H9.72824V82.538H8.25946V82.018H11.7964Z" fill="white"/>
<path d="M13.6111 82.018H16.789V82.5529H14.1868V83.8781H16.5932V84.3832H14.1868V85.8629H16.8336V86.3829H13.6111V82.018Z" fill="white"/>
<path d="M20.85 84.0177C21.1269 84.0177 21.3455 83.9623 21.5058 83.8513C21.668 83.7404 21.7491 83.5403 21.7491 83.2511C21.7491 82.9401 21.6363 82.7282 21.4108 82.6153C21.2901 82.5558 21.1289 82.5261 20.9271 82.5261H19.4851V84.0177H20.85ZM18.8946 82.018H20.9123C21.2446 82.018 21.5186 82.0666 21.7342 82.1636C22.1437 82.3498 22.3484 82.6935 22.3484 83.1947C22.3484 83.4561 22.294 83.6701 22.1852 83.8365C22.0784 84.0029 21.9281 84.1366 21.7342 84.2376C21.9044 84.3069 22.0319 84.3981 22.117 84.511C22.204 84.6239 22.2525 84.8071 22.2624 85.0607L22.2832 85.646C22.2891 85.8124 22.3029 85.9362 22.3247 86.0174C22.3603 86.1561 22.4236 86.2452 22.5146 86.2849V86.3829H21.7906C21.7708 86.3453 21.755 86.2967 21.7431 86.2373C21.7313 86.1779 21.7214 86.063 21.7135 85.8926L21.6779 85.1647C21.664 84.8794 21.5582 84.6883 21.3604 84.5912C21.2476 84.5377 21.0706 84.511 20.8292 84.511H19.4851V86.3829H18.8946V82.018Z" fill="white"/>
<path d="M24.5638 82.018H25.1602V86.3829H24.5638V82.018Z" fill="white"/>
<path d="M29.2182 81.8992C29.9877 81.8992 30.5574 82.1468 30.9273 82.642C31.2161 83.0283 31.3605 83.5225 31.3605 84.1247C31.3605 84.7764 31.1953 85.3182 30.865 85.75C30.4773 86.2571 29.9244 86.5107 29.2063 86.5107C28.5357 86.5107 28.0085 86.2888 27.6248 85.8451C27.2826 85.4172 27.1114 84.8764 27.1114 84.2228C27.1114 83.6324 27.2578 83.1273 27.5506 82.7074C27.9264 82.1686 28.4823 81.8992 29.2182 81.8992ZM29.2775 85.9818C29.7978 85.9818 30.1736 85.7956 30.4051 85.4232C30.6385 85.0488 30.7552 84.6189 30.7552 84.1336C30.7552 83.6206 30.6207 83.2075 30.3517 82.8946C30.0846 82.5816 29.7186 82.4251 29.2538 82.4251C28.8028 82.4251 28.4348 82.5806 28.15 82.8916C27.8651 83.2006 27.7227 83.6572 27.7227 84.2614C27.7227 84.7447 27.8443 85.1528 28.0877 85.4856C28.3329 85.8164 28.7296 85.9818 29.2775 85.9818Z" fill="white"/>
<path d="M35.3087 84.0177C35.5856 84.0177 35.8042 83.9623 35.9645 83.8513C36.1267 83.7404 36.2078 83.5403 36.2078 83.2511C36.2078 82.9401 36.095 82.7282 35.8695 82.6153C35.7488 82.5558 35.5876 82.5261 35.3859 82.5261H33.9438V84.0177H35.3087ZM33.3533 82.018H35.371C35.7033 82.018 35.9773 82.0666 36.1929 82.1636C36.6024 82.3498 36.8072 82.6935 36.8072 83.1947C36.8072 83.4561 36.7528 83.6701 36.644 83.8365C36.5371 84.0029 36.3868 84.1366 36.1929 84.2376C36.3631 84.3069 36.4907 84.3981 36.5757 84.511C36.6628 84.6239 36.7112 84.8071 36.7211 85.0607L36.7419 85.646C36.7478 85.8124 36.7617 85.9362 36.7834 86.0174C36.819 86.1561 36.8823 86.2452 36.9733 86.2849V86.3829H36.2493C36.2295 86.3453 36.2137 86.2967 36.2018 86.2373C36.19 86.1779 36.1801 86.063 36.1722 85.8926L36.1366 85.1647C36.1227 84.8794 36.0169 84.6883 35.8191 84.5912C35.7063 84.5377 35.5293 84.511 35.2879 84.511H33.9438V86.3829H33.3533V82.018Z" fill="white"/>
<path d="M47.9948 84.9745C48.0086 85.2221 48.067 85.4232 48.1699 85.5777C48.3657 85.8669 48.7109 86.0115 49.2054 86.0115C49.427 86.0115 49.6287 85.9798 49.8107 85.9164C50.1628 85.7936 50.3389 85.5737 50.3389 85.2568C50.3389 85.0191 50.2647 84.8497 50.1164 84.7487C49.966 84.6496 49.7306 84.5635 49.4102 84.4902L48.8197 84.3565C48.4339 84.2693 48.161 84.1732 48.0007 84.0682C47.7238 83.886 47.5853 83.6136 47.5853 83.2511C47.5853 82.8589 47.7208 82.537 47.9918 82.2854C48.2628 82.0339 48.6466 81.9081 49.1431 81.9081C49.6001 81.9081 49.9878 82.019 50.3063 82.2409C50.6267 82.4608 50.787 82.8134 50.787 83.2987H50.2321C50.2024 83.0649 50.1391 82.8857 50.0422 82.7609C49.8622 82.5331 49.5565 82.4192 49.1253 82.4192C48.7771 82.4192 48.5269 82.4924 48.3746 82.639C48.2223 82.7856 48.1461 82.956 48.1461 83.1501C48.1461 83.364 48.2351 83.5205 48.4132 83.6196C48.5299 83.683 48.794 83.7622 49.2054 83.8573L49.8167 83.9969C50.1114 84.0643 50.3389 84.1564 50.4991 84.2733C50.7761 84.4773 50.9145 84.7734 50.9145 85.1617C50.9145 85.645 50.7385 85.9907 50.3864 86.1987C50.0362 86.4067 49.6287 86.5107 49.1639 86.5107C48.6219 86.5107 48.1976 86.372 47.8909 86.0947C47.5843 85.8194 47.434 85.446 47.4399 84.9745H47.9948Z" fill="white"/>
<path d="M56.0496 82.018V82.538H54.5808V86.3829H53.9815V82.538H52.5127V82.018H56.0496Z" fill="white"/>
<path d="M58.4489 82.018V84.716C58.4489 85.0329 58.5083 85.2964 58.627 85.5064C58.803 85.8233 59.0997 85.9818 59.5171 85.9818C60.0176 85.9818 60.3578 85.8104 60.5379 85.4677C60.6348 85.2815 60.6833 85.031 60.6833 84.716V82.018H61.2826V84.4694C61.2826 85.0062 61.2104 85.4192 61.066 85.7084C60.801 86.2353 60.3005 86.4988 59.5646 86.4988C58.8287 86.4988 58.3293 86.2353 58.0662 85.7084C57.9218 85.4192 57.8495 85.0062 57.8495 84.4694V82.018H58.4489Z" fill="white"/>
<path d="M65.0884 85.8778C65.2882 85.8778 65.4524 85.857 65.581 85.8154C65.8104 85.7381 65.9983 85.5896 66.1447 85.3697C66.2614 85.1934 66.3455 84.9676 66.3969 84.6922C66.4266 84.5278 66.4415 84.3753 66.4415 84.2346C66.4415 83.6939 66.3336 83.2739 66.118 82.9748C65.9044 82.6757 65.5592 82.5261 65.0825 82.5261H64.035V85.8778H65.0884ZM63.4416 82.018H65.2071C65.8065 82.018 66.2713 82.231 66.6017 82.6569C66.8964 83.0412 67.0438 83.5334 67.0438 84.1336C67.0438 84.5971 66.9568 85.0161 66.7827 85.3905C66.4761 86.0521 65.9489 86.3829 65.2011 86.3829H63.4416V82.018Z" fill="white"/>
<path d="M69.1553 82.018H69.7517V86.3829H69.1553V82.018Z" fill="white"/>
<path d="M73.8097 81.8992C74.5792 81.8992 75.1489 82.1468 75.5188 82.642C75.8076 83.0283 75.952 83.5225 75.952 84.1247C75.952 84.7764 75.7868 85.3182 75.4565 85.75C75.0688 86.2571 74.5159 86.5107 73.7978 86.5107C73.1272 86.5107 72.6 86.2888 72.2163 85.8451C71.874 85.4172 71.7029 84.8764 71.7029 84.2228C71.7029 83.6324 71.8493 83.1273 72.1421 82.7074C72.5179 82.1686 73.0738 81.8992 73.8097 81.8992ZM73.869 85.9818C74.3893 85.9818 74.7651 85.7956 74.9966 85.4232C75.23 85.0488 75.3467 84.6189 75.3467 84.1336C75.3467 83.6206 75.2122 83.2075 74.9431 82.8946C74.6761 82.5816 74.3101 82.4251 73.8453 82.4251C73.3943 82.4251 73.0263 82.5806 72.7415 82.8916C72.4566 83.2006 72.3142 83.6572 72.3142 84.2614C72.3142 84.7447 72.4358 85.1528 72.6792 85.4856C72.9244 85.8164 73.3211 85.9818 73.869 85.9818Z" fill="white"/>
</svg>
