<svg width="510" height="601" viewBox="0 0 510 601" fill="none" xmlns="http://www.w3.org/2000/svg">
<path opacity="0.1" d="M-96.8229 153.687C-139.778 -1.96942 19.344 -17.8133 134.177 29.1867C201.177 53.3582 245.177 -21.8133 328.177 8.18666C411.177 38.1867 311.678 132.687 438.678 181.187C565.678 229.687 503.677 446.687 392.677 449.187C281.677 451.687 312.177 488.187 201.177 571.687C90.1773 655.187 -96.8226 539.187 -50.3227 416.687C-3.82272 294.187 -50.3232 322.187 -96.8229 153.687Z" stroke="white"/>
<path opacity="0.1" d="M142.075 274.825C137.119 260 160.333 236.083 179 246.29C196.093 255.637 213.5 249.333 225 253.5C255.275 264.47 244.139 270.277 257.673 283.305C274.141 299.16 282 340.675 244.139 340.675C213 340.675 222.317 355.799 199 362.5C175.683 369.201 149.24 357.794 149.24 327.763C149.24 316.485 150.33 299.517 142.075 274.825Z" stroke="white"/>
<path opacity="0.1" d="M-75.1079 163.943C-114.609 21.0895 32.1582 4.51172 138.249 48.1669C200.712 70.9907 242.295 2.07989 318.795 29.7314C397.001 58.0014 305.535 144.438 422.22 189.714C539.171 235.246 483.522 436.293 379.171 438.565C275.431 440.838 304.005 475.395 200.976 551.913C97.9475 628.432 -74.4564 521.94 -32.1837 407.846C10.089 295.457 -32.085 319.369 -75.1079 163.943Z" stroke="white"/>
<path opacity="0.1" d="M-53.3928 174.2C-89.4391 44.1494 44.9725 26.8377 142.321 67.148C200.247 88.6241 239.412 25.974 309.412 51.2771C382.826 77.8171 299.392 156.191 405.762 198.242C512.665 240.806 463.366 425.9 365.664 427.945C269.185 429.991 295.833 462.604 200.775 532.141C105.718 601.677 -52.09 504.694 -14.0446 399.007C24.0008 296.729 -13.8467 316.553 -53.3928 174.2Z" stroke="white"/>
<path opacity="0.1" d="M-31.6775 184.457C-64.2694 67.2098 57.7869 49.1642 146.393 86.1297C199.782 106.258 236.529 49.8687 300.029 72.8234C368.65 97.6334 293.249 167.944 389.304 206.77C486.159 246.367 443.211 415.507 352.158 417.325C262.938 419.144 287.661 449.814 200.575 512.369C113.488 574.924 -29.7235 487.449 4.09467 390.168C37.9128 298.001 4.3917 313.737 -31.6775 184.457Z" stroke="white"/>
<path opacity="0.1" d="M-9.96213 194.715C-39.0995 90.2706 70.6015 71.491 150.465 105.112C199.317 123.892 233.647 73.7637 290.647 94.3699C354.474 117.45 287.107 179.698 372.846 215.299C459.653 251.928 423.056 405.115 338.652 406.706C256.692 408.297 279.49 437.024 200.374 492.597C121.259 548.17 -7.3568 470.204 22.2341 381.329C51.825 299.273 22.6303 310.922 -9.96213 194.715Z" stroke="white"/>
<path opacity="0.1" d="M11.7535 205.493C-13.9294 113.851 83.4164 94.3375 154.538 124.613C198.853 142.046 230.765 98.1784 281.265 116.436C340.299 137.786 280.964 191.971 356.389 224.348C433.147 258.009 402.901 395.243 325.146 396.606C250.447 397.97 271.318 424.754 200.174 473.345C129.03 521.937 15.0101 453.479 40.3737 373.01C65.7374 301.065 40.8691 308.626 11.7535 205.493Z" stroke="white"/>
<path opacity="0.1" d="M33.4695 216.886C11.2411 138.047 96.2316 117.799 158.61 144.731C198.389 160.816 227.883 123.209 271.883 139.118C326.124 158.738 274.823 204.86 339.932 234.012C406.642 264.705 382.747 385.986 311.641 387.122C244.201 388.258 263.147 413.099 199.974 454.709C136.801 496.318 37.3774 437.369 58.5138 365.306C79.6501 303.473 59.1083 306.945 33.4695 216.886Z" stroke="white"/>
<path opacity="0.1" d="M55.1861 228.313C36.4121 162.276 109.047 141.295 162.684 164.881C197.925 179.619 225.002 148.272 262.502 161.833C311.95 179.723 268.681 217.782 323.475 243.709C380.137 271.435 362.593 376.762 298.136 377.671C237.956 378.58 254.976 401.477 199.775 436.106C144.573 470.734 59.7452 421.293 76.6543 357.636C93.5634 305.914 77.3481 305.299 55.1861 228.313Z" stroke="white"/>
<path opacity="0.1" d="M76.9035 239.788C61.5839 186.555 121.864 164.839 166.758 185.081C197.462 198.471 222.121 173.385 253.121 184.597C297.776 200.757 262.541 230.753 307.02 253.456C353.633 278.213 342.44 367.588 284.632 368.27C231.712 368.952 246.807 389.905 199.576 417.552C152.345 445.198 82.1139 405.266 94.7957 350.016C107.478 308.404 95.5887 303.701 76.9035 239.788Z" stroke="white"/>
<path opacity="0.1" d="M98.6225 251.337C86.7574 210.906 134.682 188.457 170.834 205.354C197.001 217.396 219.243 198.571 243.743 207.435C283.604 221.865 256.402 243.797 290.566 263.275C327.131 285.065 322.288 358.487 271.129 358.941C225.47 359.396 238.638 378.406 199.379 399.071C160.12 419.735 104.484 389.312 112.939 342.468C121.393 310.968 113.831 302.176 98.6225 251.337Z" stroke="white"/>
<path opacity="0.1" d="M120.345 262.996C111.934 235.368 147.504 212.185 174.913 225.737C196.543 236.431 216.367 223.867 234.367 230.382C269.435 243.082 250.266 256.952 274.115 273.205C300.632 292.027 302.14 349.495 257.63 349.723C219.231 349.95 230.474 367.017 199.185 380.7C167.897 394.383 126.858 373.468 131.085 335.03C135.312 313.641 132.076 300.762 120.345 262.996Z" stroke="white"/>
</svg>
