<svg width="48" height="48" viewBox="0 0 48 48" fill="none" xmlns="http://www.w3.org/2000/svg">
<g clip-path="url(#clip0_52_15)">
<path d="M47.8934 5.43986C47.8401 5.38656 47.7332 5.33325 47.6799 5.33325L24.0001 8.96007L2.29386 5.65334L0.32058 5.33325H0.213704C0.160401 5.33325 0.107096 5.38656 0.107096 5.43986C0.053793 5.49316 0.000488281 5.54674 0.000488281 5.65334V30.2396C0.000488281 30.3462 0.0537916 30.4529 0.160397 30.5064L1.17368 31.0397L23.84 42.8265C23.8933 42.8265 23.9466 42.8798 23.9999 42.8798C24.0532 42.8798 24.1065 42.8798 24.1598 42.8265L47.8395 30.5062C47.9462 30.4529 47.9995 30.3463 47.9995 30.2395L48 5.65316C48 5.54655 47.9467 5.49317 47.8934 5.43986ZM7.25317 33.3868L4.15998 31.7869L1.5998 30.4533L4.63971 29.92L26.8795 40.6398L23.9998 42.1333L7.25317 33.3868ZM30.8267 26.88V13.4935L33.9198 13.1734V27.4671L30.8267 26.88ZM34.2933 27.5199V13.1199L37.7066 12.7998V28.1064L34.2933 27.5199ZM38.4001 28.2134V12.4269C38.4001 12.2137 38.2402 12.0535 38.0267 12.0535H37.9734L30.3997 12.8003C30.2398 12.8003 30.0796 12.9602 30.0796 13.1204V26.7202L24.3729 25.7602L24.3731 9.7069L47.1999 6.08009V29.7599L38.4001 28.2134ZM46.4003 30.4532L43.5736 31.9465L22.2938 26.8797L24.0006 26.5596L46.4003 30.4532ZM8.48032 29.28L11.8936 28.6934L33.5471 37.1737L30.5072 38.7736L8.48032 29.28ZM30.2936 38.88L27.1468 40.5332L5.01328 29.8669L8.10647 29.3336L30.2936 38.88ZM12.2668 28.5868L15.4669 28.0535L36.9072 35.4132L33.814 37.0132L12.2668 28.5868ZM15.8934 27.9466L18.6135 27.4666L40.1072 33.7066L37.1205 35.2532L15.8934 27.9466ZM19.0935 27.4133L21.7603 26.9333L43.3068 32.0534L40.4265 33.6L19.0935 27.4133ZM0.747183 6.08003L23.6274 9.70684V25.8136L0.747183 29.7599V6.08003Z" fill="white"/>
</g>
<defs>
<clipPath id="clip0_52_15">
<rect width="48" height="48" fill="white"/>
</clipPath>
</defs>
</svg>
