<svg width="48" height="48" viewBox="0 0 48 48" fill="none" xmlns="http://www.w3.org/2000/svg">
<g clip-path="url(#clip0_52_24)">
<path d="M10.8913 25.0161C11.0215 25.0161 11.1465 24.9644 11.2387 24.8722C11.3308 24.78 11.3825 24.6553 11.3825 24.5252V23.5427C11.3825 23.2717 11.1626 23.0518 10.8913 23.0518C10.62 23.0518 10.4004 23.2717 10.4004 23.5427V24.5252C10.4004 24.6554 10.4521 24.78 10.5443 24.8722C10.6361 24.9644 10.7611 25.0161 10.8913 25.0161H10.8913Z" fill="white" stroke="white" stroke-width="0.04"/>
<path d="M14.4517 23.0518C14.1804 23.0518 13.9604 23.2717 13.9604 23.5427V24.5252C13.9604 24.7962 14.1804 25.0161 14.4517 25.0161C14.723 25.0161 14.9426 24.7962 14.9426 24.5252V23.5427C14.9426 23.4125 14.8909 23.2878 14.7991 23.1956C14.7069 23.1035 14.5819 23.0518 14.4517 23.0518L14.4517 23.0518Z" fill="white" stroke="white" stroke-width="0.04"/>
<path d="M33.3298 23.0518C33.0588 23.0518 32.8389 23.2717 32.8389 23.5427V24.5252C32.8389 24.7962 33.0588 25.0161 33.3298 25.0161C33.6011 25.0161 33.821 24.7962 33.821 24.5252V23.5427C33.821 23.4125 33.7693 23.2878 33.6772 23.1956C33.585 23.1035 33.4603 23.0518 33.3298 23.0518L33.3298 23.0518Z" fill="white" stroke="white" stroke-width="0.04"/>
<path d="M36.9151 23.0518C36.6438 23.0518 36.4238 23.2717 36.4238 23.5427V24.5252C36.4238 24.7962 36.6438 25.0161 36.9151 25.0161C37.1861 25.0161 37.406 24.7962 37.406 24.5252V23.5427C37.406 23.4125 37.3543 23.2878 37.2621 23.1956C37.1703 23.1035 37.0453 23.0518 36.9151 23.0518L36.9151 23.0518Z" fill="white" stroke="white" stroke-width="0.04"/>
<path d="M1.25512 16.5636V29.1266C1.25512 29.2571 1.30685 29.3818 1.399 29.4739C1.49115 29.5661 1.61585 29.6178 1.74637 29.6178H2.72852V33.6105C2.72852 33.7407 2.78025 33.8658 2.8724 33.9579C2.96455 34.05 3.08925 34.1018 3.21943 34.1018H4.44722C4.68291 34.1069 4.88915 33.9442 4.93848 33.7136L5.82749 29.6178H41.8659L42.7645 33.7136H42.7648C42.8142 33.9442 43.0204 34.1069 43.2558 34.1018H44.4836C44.6141 34.1018 44.7388 34.0501 44.8309 33.9579C44.9231 33.8657 44.9748 33.7407 44.9748 33.6105V29.6178H46.2763C46.4065 29.6178 46.5315 29.5661 46.6236 29.4739C46.7158 29.3818 46.7675 29.2571 46.7675 29.1266V16.5592C47.5332 16.0782 47.9984 15.2383 48.0001 14.3342C48.0001 14.204 47.9484 14.0793 47.8563 13.9871C47.7641 13.895 47.6394 13.8433 47.5089 13.8433H0.499218C0.227892 13.8433 0.00830078 14.0632 0.00830078 14.3342C0.011384 15.243 0.482774 16.0858 1.25565 16.564L1.25512 16.5636ZM23.5072 16.9712V19.1665H13.3656V16.9565L23.5072 16.9712ZM34.6354 16.9712L34.6357 19.1665H24.4889V16.9565L34.6354 16.9712ZM45.3418 16.9712H45.7542L45.7546 19.1665H35.6226V16.9565L45.3418 16.9712ZM12.3833 19.1665H2.23648V16.9565H12.3833V19.1665ZM2.23648 20.1486H12.3833V28.6353H2.23648V20.1486ZM4.05353 33.1045H3.70958L3.70992 29.6177H4.81985L4.05353 33.1045ZM13.3655 20.1486H23.5071V28.6353H13.3655V20.1486ZM24.4893 20.1486H34.6406V28.6353H24.4893V20.1486ZM43.9815 33.1194H43.6426L42.8766 29.6227H43.9866L43.9815 33.1194ZM44.4727 28.6406H35.6326V20.1488H45.7593V28.6355L44.4727 28.6406ZM46.9283 14.8305V14.8302C46.8235 15.1683 46.6138 15.4639 46.3291 15.6739C46.0448 15.8843 45.7005 15.9983 45.347 15.999H2.64863C2.29372 15.999 1.94772 15.8849 1.66236 15.6736C1.37665 15.4622 1.16666 15.1649 1.06251 14.8254L46.9283 14.8305Z" fill="white" stroke="white" stroke-width="0.04"/>
</g>
<defs>
<clipPath id="clip0_52_24">
<rect width="48" height="48" fill="white"/>
</clipPath>
</defs>
</svg>
