<svg width="48" height="48" viewBox="0 0 48 48" fill="none" xmlns="http://www.w3.org/2000/svg">
<path d="M14.8072 28.1699V23.1738C14.8072 22.8764 14.5668 22.636 14.2694 22.636H10.1584C9.86102 22.636 9.62061 22.8764 9.62061 23.1738V28.1699C9.62061 28.4674 9.86102 28.7078 10.1584 28.7078H14.2694C14.5664 28.7074 14.8072 28.467 14.8072 28.1699ZM13.732 27.6321H10.6963V23.7113H13.732V27.6321Z" fill="white"/>
<path d="M21.8297 28.1699V23.1738C21.8297 22.8764 21.5893 22.636 21.2919 22.636H17.1809C16.8835 22.636 16.6431 22.8764 16.6431 23.1738V28.1699C16.6431 28.4674 16.8835 28.7078 17.1809 28.7078H21.2919C21.5893 28.7074 21.8297 28.467 21.8297 28.1699ZM20.7544 27.6321H17.7187V23.7113H20.7544V27.6321Z" fill="white"/>
<path d="M14.8072 38.0273V33.0312C14.8072 32.7338 14.5668 32.4934 14.2694 32.4934H10.1584C9.86102 32.4934 9.62061 32.7338 9.62061 33.0312V38.0273C9.62061 38.3248 9.86102 38.5652 10.1584 38.5652H14.2694C14.5664 38.5652 14.8072 38.3248 14.8072 38.0273ZM13.732 37.4899H10.6963V33.569H13.732V37.4899Z" fill="white"/>
<path d="M21.8297 38.0273V33.0312C21.8297 32.7338 21.5893 32.4934 21.2919 32.4934H17.1809C16.8835 32.4934 16.6431 32.7338 16.6431 33.0312V38.0273C16.6431 38.3248 16.8835 38.5652 17.1809 38.5652H21.2919C21.5893 38.5652 21.8297 38.3248 21.8297 38.0273ZM20.7544 37.4899H17.7187V33.569H20.7544V37.4899Z" fill="white"/>
<path d="M14.8072 18.4395V13.4434C14.8072 13.1459 14.5668 12.9055 14.2694 12.9055H10.1584C9.86102 12.9055 9.62061 13.1459 9.62061 13.4434V18.4395C9.62061 18.7369 9.86102 18.9773 10.1584 18.9773H14.2694C14.5664 18.9773 14.8072 18.7361 14.8072 18.4395ZM13.732 17.902H10.6963V13.9812H13.732V17.902Z" fill="white"/>
<path d="M21.8297 18.4395V13.4434C21.8297 13.1459 21.5893 12.9055 21.2919 12.9055H17.1809C16.8835 12.9055 16.6431 13.1459 16.6431 13.4434V18.4395C16.6431 18.7369 16.8835 18.9773 17.1809 18.9773H21.2919C21.5893 18.9773 21.8297 18.7361 21.8297 18.4395ZM20.7544 17.902H17.7187V13.9812H20.7544V17.902Z" fill="white"/>
<path d="M32.547 28.1699V23.1738C32.547 22.8764 32.3066 22.636 32.0091 22.636H27.8982C27.6008 22.636 27.3604 22.8764 27.3604 23.1738V28.1699C27.3604 28.4674 27.6008 28.7078 27.8982 28.7078H32.0091C32.3062 28.7074 32.547 28.467 32.547 28.1699ZM31.4717 27.6321H28.436V23.7113H31.4717V27.6321Z" fill="white"/>
<path d="M39.0311 28.7073C39.3286 28.7073 39.569 28.4669 39.569 28.1694V23.1733C39.569 22.8759 39.3286 22.6355 39.0311 22.6355H34.9202C34.6227 22.6355 34.3823 22.8759 34.3823 23.1733V28.1694C34.3823 28.4669 34.6227 28.7073 34.9202 28.7073H39.0311ZM38.4933 27.632H35.4576V23.7112H38.4933V27.632Z" fill="white"/>
<path d="M6.74247 19.4543V43.4974L5.6764 43.4972V19.4543M6.74247 19.4543H6.74747V19.4499H6.74247M6.74247 19.4543L5.6764 19.4543M6.74247 19.4543V19.4499M6.74247 19.4499V10.5068V10.5062M6.74247 19.4499H5.6764M6.74247 10.5062H6.74747H15.0558L15.0558 10.5015L15.0557 9.43558H6.74744L6.74747 10.5018H6.74247M6.74247 10.5062H5.6764M6.74247 10.5062V10.5018M6.74247 10.5018V9.43558H5.92407V9.43058H5.91907V7.26575H5.92407V7.26075H6.74247V6.19457L5.38598 6.19463C5.09132 6.19463 4.85314 6.4328 4.85314 6.72746V9.96756C4.85314 10.2622 5.09132 10.5004 5.38598 10.5004H5.6714V10.5019M6.74247 10.5018L5.6714 10.5019M5.6714 10.5019L5.38598 10.5019L5.32386 10.5019C5.34424 10.5042 5.36497 10.5054 5.38598 10.5054H5.6664H5.6714M5.6714 10.5019V10.5054M5.6714 10.5054V10.5062H5.6764M5.6714 10.5054H5.6764V10.5062M5.6764 10.5062V19.4499M5.6764 19.4499H5.6714V19.4543H5.6764M5.6764 19.4499V19.4543M24.8843 9.43558V9.43058H24.8886V9.43558M24.8843 9.43558H15.0606V10.5015V10.5062H24.8786H24.8836H24.8843M24.8843 9.43558H24.8886M24.8843 9.43558L24.8843 10.5062M24.8843 10.5062L24.8841 19.4499M24.8843 10.5062H24.8886V9.43558M24.8841 19.4499H24.8836V19.4546H24.8841M24.8841 19.4499V19.4546M24.8841 19.4499H24.8886H25.9584V19.4549M24.8841 19.4546L24.8836 43.4927V43.4969H24.8886L25.9538 43.4969V43.5019M24.8841 19.4546H24.8886L25.9534 19.4549H25.9584M25.9538 43.5019H24.8836V43.5027L15.0606 43.5025V44.5665H25.9538M25.9538 43.5019H25.9584M25.9538 43.5019L25.9538 44.5665M25.9538 44.5665V44.5715H25.9584V44.5665M25.9538 44.5665H25.9584M25.9584 44.5665H41.3184V43.5015H36.8508V43.4965H36.8458V32.7016C36.8458 32.4069 36.6076 32.1688 36.3129 32.1688L30.8855 32.1691C30.5909 32.1691 30.3527 32.4073 30.3527 32.702V43.4969H30.3477V43.5019H25.9588H25.9584M25.9584 44.5665V43.5019M25.9584 43.5019V43.4969V19.4599V19.4549M25.9584 19.4549H25.9634H41.3138H41.3188H41.3238L41.3234 43.4965L41.3234 44.5665H41.8555C42.1502 44.5665 42.3884 44.3283 42.3884 44.0336V19.4539H42.3934V19.4489H42.938C43.2326 19.4489 43.4708 19.2111 43.4708 18.9165V18.9222L43.4725 18.9203L43.4755 18.9168H43.4712V18.9165V15.6767C43.4712 15.382 43.233 15.1439 42.9383 15.1439H25.9582V15.1389H25.9532V10.505H25.9582V10.5H26.2436C26.5383 10.5 26.7764 10.2619 26.7764 9.96719V6.72709C26.7764 6.43242 26.5383 6.19425 26.2436 6.19425H24.8886M24.8886 6.19425V6.18925H24.8844V6.19425M24.8886 6.19425V7.26075M24.8886 6.19425H24.8844M24.8844 6.19425H23.8106V6.18925H23.8056V3.82787C23.8056 3.53321 23.5674 3.29504 23.2728 3.29504H20.3751C20.0804 3.29504 19.8422 3.53321 19.8422 3.82787V6.18925H19.8372V6.19425H19.029V6.18925H19.024V3.82787C19.024 3.53321 18.7858 3.29504 18.4911 3.29504H15.5934C15.2988 3.29504 15.0606 3.53321 15.0606 3.82787V6.18925V7.26075H24.8844M24.8844 6.19425L24.8844 7.26075M24.8844 7.26075L24.8844 7.26575H24.8886V7.26075M24.8844 7.26075H24.8886M24.8886 7.26075H25.7069V7.26575H25.7119V9.43058H25.7069V9.43558H24.8886M6.74737 7.26075L6.74733 6.19457L15.0556 6.19425L15.0556 7.26075H6.74737ZM5.6764 44.0336V43.5023L6.74747 43.5024L15.057 43.5025L15.0571 44.5665H6.20924C5.91457 44.5665 5.6764 44.3283 5.6764 44.0336ZM35.7761 33.2402V33.2352H31.4232V33.2402H31.4182V43.4965H31.4232V43.5015H35.7761V43.4965H35.7811V33.2402H35.7761ZM16.1332 6.1901V6.1951H17.9552V6.1901H17.9602V4.36621H17.9552V4.36121H16.1332V4.36621H16.1282V6.1901H16.1332ZM20.914 6.1901V6.1951H22.7361V6.1901H22.7411V4.36621H22.7361V4.36121H20.914V4.36621H20.909V6.1901H20.914ZM25.959 18.3798V18.3848H42.4015V18.3798H42.4065V16.215H42.4015V16.21H25.959V16.215H25.954V18.3798H25.959Z" fill="white" stroke="#151717" stroke-width="0.01"/>
</svg>
