<svg width="66" height="66" viewBox="0 0 66 66" fill="none" xmlns="http://www.w3.org/2000/svg">
<circle cx="33" cy="33" r="33" fill="url(#paint0_linear_112_1208)"/>
<g clip-path="url(#clip0_112_1208)">
<path d="M17.2314 48.8402L19.4583 40.705C18.0818 38.319 17.3588 35.6122 17.3621 32.8576C17.3661 24.2024 24.4109 17.1602 33.0662 17.1602C37.2664 17.1615 41.2106 18.797 44.174 21.7643C45.636 23.2196 46.795 24.9505 47.5837 26.8567C48.3724 28.7629 48.7752 30.8066 48.7689 32.8695C48.7662 41.5247 41.7201 48.5682 33.0662 48.5682H33.0596C30.4328 48.5669 27.8495 47.9082 25.5554 46.6569L17.2314 48.8402ZM25.9408 43.8149L26.4173 44.0974C28.4287 45.2884 30.7233 45.9167 33.0609 45.9164H33.0662C40.2602 45.9164 46.1157 40.0635 46.1183 32.8695C46.1237 31.1545 45.7888 29.4555 45.1331 27.8708C44.4774 26.2861 43.5138 24.8472 42.2982 23.6374C41.0896 22.4214 39.6517 21.4572 38.068 20.8006C36.4842 20.144 34.7859 19.808 33.0714 19.812C25.8722 19.812 20.0166 25.6649 20.014 32.8589C20.0108 35.3153 20.7027 37.7224 22.0098 39.8021L22.32 40.2958L21.0014 45.1112L25.9408 43.8149Z" fill="white"/>
<path fill-rule="evenodd" clip-rule="evenodd" d="M29.1416 26.2946C28.8222 25.5303 28.4988 25.6346 28.2572 25.6214C28.0302 25.6108 27.7688 25.6082 27.5061 25.6082C27.2435 25.6082 26.8197 25.7058 26.4607 26.0992C26.1003 26.4912 25.0879 27.4403 25.0879 29.3715C25.0879 31.3013 26.4924 33.1665 26.6891 33.4292C26.8857 33.6905 29.4558 37.6532 33.392 39.352C34.3279 39.7559 35.0592 39.9975 35.6281 40.1783C36.5679 40.4766 37.4233 40.4344 38.1005 40.3328C38.8529 40.2206 40.421 39.3837 40.7484 38.4676C41.0757 37.5515 41.0757 36.7661 40.9767 36.6024C40.879 36.4388 40.6177 36.3411 40.2243 36.1444C39.8323 35.9477 37.9038 35 37.5447 34.868C37.1844 34.7373 36.923 34.6726 36.6603 35.066C36.4003 35.458 35.6479 36.3411 35.4195 36.6024C35.1899 36.8651 34.9615 36.8968 34.5695 36.7014C34.1761 36.5034 32.9115 36.0903 31.4147 34.7544C30.2465 33.7143 29.4597 32.4299 29.2301 32.0366C29.0017 31.6445 29.2063 31.432 29.4017 31.2366C29.5799 31.0611 29.795 30.7786 29.9917 30.5502C30.1871 30.3206 30.2531 30.1569 30.3837 29.8942C30.5144 29.6328 30.4497 29.4032 30.3507 29.2078C30.2531 29.0111 29.4677 27.08 29.1416 26.2946Z" fill="white"/>
</g>
<defs>
<linearGradient id="paint0_linear_112_1208" x1="33" y1="0" x2="33" y2="66" gradientUnits="userSpaceOnUse">
<stop stop-color="#80D075"/>
<stop offset="1" stop-color="#5EB04F"/>
</linearGradient>
<clipPath id="clip0_112_1208">
<rect width="31.68" height="31.68" fill="white" transform="translate(17.1602 17.1602)"/>
</clipPath>
</defs>
</svg>
